<svg width="1125" height="636" viewBox="0 0 1125 636" fill="none" xmlns="http://www.w3.org/2000/svg">
<path d="M110.328 200.688C185.4 200.688 198.84 176.112 198.84 152.112V149.424C198.84 120.624 177.72 107.952 123.384 106.416L97.656 105.84C70.776 105.264 66.552 100.656 66.552 94.896V94.704C66.552 89.136 69.432 84.144 98.04 84.144H99.96C130.872 84.144 133.944 94.128 134.52 99.312H193.848V97.776C193.848 75.12 177.72 52.656 107.064 52.656H89.976C23.352 52.656 7.8 73.008 7.8 96.24V97.968C7.8 120.048 22.584 139.44 77.88 140.976L104.376 141.744C134.328 142.704 137.976 147.312 137.976 154.608V154.8C137.976 161.712 133.56 168.24 103.032 168.24H101.304C70.2 168.24 66.168 155.76 65.592 148.08H5.688V150C5.688 168.624 13.944 200.688 92.856 200.688H110.328ZM310.61 52.464C218.066 52.464 206.354 96.432 206.354 123.312V129.072C206.354 155.76 218.066 200.688 310.61 200.688H319.25C411.602 200.688 423.313 155.76 423.313 129.072V123.312C423.313 96.432 411.41 52.464 319.25 52.464H310.61ZM366.866 127.344C366.866 142.704 357.074 162.096 314.833 162.096C272.594 162.096 262.802 141.936 262.802 126.96V124.656C262.802 109.488 271.826 90.864 314.833 90.864C357.074 90.864 366.866 109.488 366.866 124.656V127.344ZM436.904 198H490.088V108.912L540.008 198H567.848L617.96 108.912V198H671.912V55.152H600.104L555.56 135.408L511.784 55.152H436.904V198ZM690.404 55.152V198H849.956V162.288H744.164V142.704H846.308V107.952H744.164V90.096H848.42V55.152H690.404Z" fill="#FF2727"/>
<path d="M108.216 624.688C152.76 624.688 170.616 608.368 176.184 602.224C178.872 607.408 181.944 617.392 182.904 622H217.272V541.552H111.48V569.392H161.592C161.592 574 149.688 587.248 112.824 587.248C77.496 587.248 63.864 569.392 63.864 551.152V549.04C63.864 530.224 74.808 513.712 113.208 513.712C153.528 513.712 158.52 528.112 159.48 531.76H216.312V531.568C215.544 511.6 203.64 476.464 116.088 476.464H108.6C24.312 476.464 7.416 516.592 7.416 547.312V552.688C7.416 582.832 25.656 624.688 103.8 624.688H108.216ZM334.235 476.464C241.691 476.464 229.979 520.432 229.979 547.312V553.072C229.979 579.76 241.691 624.688 334.235 624.688H342.875C435.227 624.688 446.938 579.76 446.938 553.072V547.312C446.938 520.432 435.035 476.464 342.875 476.464H334.235ZM390.491 551.344C390.491 566.704 380.699 586.096 338.458 586.096C296.219 586.096 286.427 565.936 286.427 550.96V548.656C286.427 533.488 295.451 514.864 338.458 514.864C380.699 514.864 390.491 533.488 390.491 548.656V551.344ZM559.985 476.464C467.441 476.464 455.729 520.432 455.729 547.312V553.072C455.729 579.76 467.441 624.688 559.985 624.688H568.625C660.977 624.688 672.688 579.76 672.688 553.072V547.312C672.688 520.432 660.785 476.464 568.625 476.464H559.985ZM616.241 551.344C616.241 566.704 606.449 586.096 564.208 586.096C521.969 586.096 512.177 565.936 512.177 550.96V548.656C512.177 533.488 521.201 514.864 564.208 514.864C606.449 514.864 616.241 533.488 616.241 548.656V551.344ZM686.279 622H787.847C872.903 622 890.759 584.944 890.759 552.496V546.736C890.759 513.136 870.022 479.152 787.655 479.152H686.279V622ZM740.807 516.592H781.319C828.935 516.592 834.119 537.136 834.119 549.616V550.768C834.119 563.248 828.935 584.176 781.319 584.176H740.807V516.592ZM947.346 584.56H893.202V622H947.346V584.56Z" fill="#F9C0B7"/>
<path d="M122.808 410L151.608 319.76L181.368 410H244.536L300.216 267.152H244.344L212.856 359.888L183.864 267.152H122.424L93.816 361.424L61.368 267.152H0.696L56.376 410H122.808ZM306.966 410H361.494V355.664H450.774V410H505.11V267.152H450.774V317.648H361.494V267.152H306.966V410ZM523.529 267.152V410H683.081V374.288H577.289V354.704H679.433V319.952H577.289V302.096H681.545V267.152H523.529ZM753.369 301.904H815.961C828.249 301.904 832.473 307.28 832.473 314V314.192C832.473 321.104 828.057 326.48 815.961 326.48H753.369V301.904ZM753.369 361.04H805.593C827.097 361.04 834.585 369.488 834.585 385.808V402.512C834.585 406.544 834.969 408.464 836.313 410H891.993V409.04C890.649 406.544 889.305 402.896 889.305 392.912V371.792C889.305 353.36 877.593 341.84 859.929 337.808C870.681 335.312 888.729 326.672 888.729 305.936V303.824C888.729 280.592 870.297 267.152 828.633 267.152H698.841V410H753.369V361.04ZM904.341 267.152V410H1063.89V374.288H958.101V354.704H1060.25V319.952H958.101V302.096H1062.36V267.152H904.341Z" fill="#F8AD45"/>
</svg>
